<?xml version="1.0" encoding="UTF-8"?>
<svg xmlns="http://www.w3.org/2000/svg" xmlns:xlink="http://www.w3.org/1999/xlink" width="35px" height="35px" viewBox="0 0 35 35" version="1.1">
<g id="surface1">
<path style=" stroke:none;fill-rule:nonzero;fill:rgb(0%,0%,0%);fill-opacity:1;" d="M 14 12.832031 C 15.171875 13.664062 16.054688 14.496094 16.566406 15.867188 C 16.566406 16.019531 16.566406 16.175781 16.566406 16.332031 C 16.789062 16.332031 17.015625 16.332031 17.246094 16.332031 C 19.355469 16.328125 21.460938 16.324219 23.570312 16.320312 C 24.652344 16.320312 25.738281 16.320312 26.820312 16.316406 C 27.867188 16.3125 28.914062 16.3125 29.957031 16.3125 C 30.359375 16.3125 30.757812 16.308594 31.15625 16.308594 C 31.714844 16.308594 32.273438 16.308594 32.832031 16.308594 C 32.996094 16.304688 33.164062 16.304688 33.335938 16.304688 C 34.480469 16.308594 34.480469 16.308594 35 16.566406 C 35 17.183594 35 17.796875 35 18.433594 C 34.304688 18.78125 33.59375 18.695312 32.832031 18.691406 C 32.566406 18.691406 32.566406 18.691406 32.300781 18.691406 C 31.71875 18.691406 31.136719 18.691406 30.558594 18.6875 C 30.15625 18.6875 29.753906 18.6875 29.351562 18.6875 C 28.292969 18.6875 27.230469 18.683594 26.171875 18.683594 C 25.09375 18.679688 24.011719 18.679688 22.929688 18.679688 C 20.808594 18.675781 18.6875 18.671875 16.566406 18.667969 C 16.460938 18.996094 16.460938 18.996094 16.355469 19.335938 C 15.886719 20.683594 14.933594 21.652344 13.722656 22.386719 C 11.949219 23.054688 10.488281 23.015625 8.734375 22.257812 C 7.792969 21.71875 7.078125 21.003906 6.535156 20.066406 C 6.449219 19.601562 6.367188 19.132812 6.300781 18.667969 C 6.125 18.667969 5.953125 18.667969 5.773438 18.671875 C 4.984375 18.675781 4.199219 18.679688 3.414062 18.679688 C 3 18.683594 3 18.683594 2.582031 18.6875 C 2.1875 18.6875 2.1875 18.6875 1.789062 18.6875 C 1.425781 18.691406 1.425781 18.691406 1.054688 18.691406 C 0.464844 18.667969 0.464844 18.667969 0 18.433594 C 0 17.816406 0 17.203125 0 16.566406 C 0.621094 16.257812 1.09375 16.308594 1.789062 16.3125 C 2.050781 16.3125 2.3125 16.3125 2.582031 16.3125 C 2.855469 16.316406 3.128906 16.316406 3.414062 16.320312 C 3.6875 16.320312 3.964844 16.320312 4.25 16.320312 C 4.933594 16.324219 5.617188 16.328125 6.300781 16.332031 C 6.332031 16.113281 6.363281 15.890625 6.398438 15.664062 C 6.613281 14.492188 7.273438 13.824219 8.167969 13.066406 C 10.101562 11.957031 12.011719 11.761719 14 12.832031 Z M 8.867188 15.867188 C 8.429688 16.585938 8.398438 16.988281 8.414062 17.835938 C 8.6875 18.878906 9.050781 19.300781 9.800781 20.066406 C 10.605469 20.46875 11.484375 20.382812 12.367188 20.300781 C 13.179688 19.980469 13.464844 19.695312 13.972656 18.988281 C 14.3125 17.957031 14.320312 17.140625 14 16.101562 C 13.398438 15.359375 12.882812 14.773438 11.910156 14.636719 C 10.464844 14.574219 9.847656 14.789062 8.867188 15.867188 Z M 8.867188 15.867188 "/>
<path style=" stroke:none;fill-rule:nonzero;fill:rgb(0%,0%,0%);fill-opacity:1;" d="M 26.832031 25.433594 C 28 26.425781 28.476562 27.183594 28.699219 28.699219 C 28.875 28.699219 29.046875 28.699219 29.226562 28.695312 C 30.015625 28.691406 30.800781 28.6875 31.585938 28.683594 C 32 28.683594 32 28.683594 32.417969 28.679688 C 32.8125 28.679688 32.8125 28.679688 33.210938 28.675781 C 33.574219 28.675781 33.574219 28.675781 33.945312 28.671875 C 34.535156 28.699219 34.535156 28.699219 35 28.933594 C 35 29.550781 35 30.164062 35 30.800781 C 34.378906 31.109375 33.90625 31.058594 33.210938 31.054688 C 32.949219 31.054688 32.6875 31.054688 32.417969 31.054688 C 32.144531 31.050781 31.871094 31.050781 31.585938 31.046875 C 31.3125 31.046875 31.035156 31.046875 30.75 31.042969 C 30.066406 31.042969 29.382812 31.039062 28.699219 31.035156 C 28.667969 31.253906 28.636719 31.472656 28.605469 31.699219 C 28.453125 32.5 28.261719 32.816406 27.722656 33.410156 C 27.589844 33.5625 27.457031 33.714844 27.320312 33.871094 C 25.914062 35.109375 24.566406 35.121094 22.765625 35.082031 C 21.113281 34.921875 20.253906 34.117188 19.195312 32.894531 C 18.820312 32.304688 18.644531 31.695312 18.433594 31.035156 C 18.097656 31.035156 18.097656 31.035156 17.753906 31.035156 C 15.644531 31.039062 13.539062 31.042969 11.429688 31.046875 C 10.347656 31.046875 9.261719 31.046875 8.179688 31.050781 C 7.132812 31.054688 6.085938 31.054688 5.042969 31.054688 C 4.640625 31.054688 4.242188 31.058594 3.84375 31.058594 C 3.285156 31.058594 2.726562 31.058594 2.167969 31.058594 C 2.003906 31.0625 1.835938 31.0625 1.664062 31.0625 C 0.519531 31.058594 0.519531 31.058594 0 30.800781 C 0 30.183594 0 29.566406 0 28.933594 C 0.695312 28.585938 1.40625 28.660156 2.167969 28.652344 C 2.433594 28.648438 2.433594 28.648438 2.699219 28.644531 C 3.28125 28.636719 3.863281 28.632812 4.441406 28.625 C 4.84375 28.621094 5.246094 28.617188 5.648438 28.613281 C 6.707031 28.597656 7.769531 28.585938 8.828125 28.574219 C 9.90625 28.5625 10.988281 28.550781 12.070312 28.539062 C 14.191406 28.511719 16.3125 28.488281 18.433594 28.464844 C 18.496094 28.339844 18.558594 28.210938 18.621094 28.078125 C 18.703125 27.90625 18.789062 27.738281 18.871094 27.566406 C 18.953125 27.398438 19.035156 27.230469 19.121094 27.058594 C 19.757812 25.871094 20.839844 25.125 22.066406 24.632812 C 23.867188 24.335938 25.242188 24.523438 26.832031 25.433594 Z M 21.464844 27.765625 C 20.746094 28.773438 20.667969 29.582031 20.847656 30.773438 C 21.085938 31.546875 21.542969 31.945312 22.167969 32.433594 C 22.980469 32.839844 23.84375 32.800781 24.734375 32.667969 C 25.519531 32.265625 26.011719 31.703125 26.46875 30.945312 C 26.675781 29.984375 26.648438 29.140625 26.105469 28.292969 C 25.691406 27.78125 25.324219 27.363281 24.734375 27.066406 C 23.5 26.941406 22.4375 26.910156 21.464844 27.765625 Z M 21.464844 27.765625 "/>
<path style=" stroke:none;fill-rule:nonzero;fill:rgb(0%,0%,0%);fill-opacity:1;" d="M 26.027344 0.195312 C 27.164062 0.847656 28.09375 1.875 28.699219 3.035156 C 28.699219 3.339844 28.699219 3.648438 28.699219 3.964844 C 28.875 3.964844 29.046875 3.964844 29.226562 3.964844 C 30.015625 3.957031 30.800781 3.957031 31.585938 3.953125 C 32 3.949219 32 3.949219 32.417969 3.945312 C 32.8125 3.945312 32.8125 3.945312 33.210938 3.945312 C 33.574219 3.941406 33.574219 3.941406 33.945312 3.941406 C 34.535156 3.964844 34.535156 3.964844 35 4.199219 C 35 4.816406 35 5.433594 35 6.066406 C 34.378906 6.378906 33.90625 6.328125 33.210938 6.324219 C 32.949219 6.320312 32.6875 6.320312 32.417969 6.320312 C 32.144531 6.320312 31.871094 6.316406 31.585938 6.316406 C 31.3125 6.3125 31.035156 6.3125 30.75 6.3125 C 30.066406 6.308594 29.382812 6.304688 28.699219 6.300781 C 28.667969 6.519531 28.636719 6.742188 28.601562 6.96875 C 28.386719 8.140625 27.726562 8.808594 26.832031 9.566406 C 25.417969 10.378906 24.039062 10.765625 22.417969 10.398438 C 21.101562 9.988281 20.015625 9.222656 19.132812 8.167969 C 18.894531 7.625 18.660156 7.082031 18.433594 6.535156 C 18.210938 6.53125 17.984375 6.527344 17.753906 6.527344 C 15.644531 6.503906 13.539062 6.480469 11.429688 6.453125 C 10.347656 6.441406 9.261719 6.429688 8.179688 6.417969 C 7.132812 6.40625 6.085938 6.394531 5.042969 6.382812 C 4.640625 6.375 4.242188 6.371094 3.84375 6.367188 C 3.285156 6.363281 2.726562 6.355469 2.167969 6.347656 C 2.003906 6.347656 1.835938 6.34375 1.664062 6.34375 C 0.519531 6.328125 0.519531 6.328125 0 6.066406 C 0 5.449219 0 4.835938 0 4.199219 C 0.695312 3.851562 1.40625 3.9375 2.167969 3.941406 C 2.433594 3.941406 2.433594 3.941406 2.699219 3.941406 C 3.28125 3.941406 3.863281 3.941406 4.441406 3.945312 C 4.84375 3.945312 5.246094 3.945312 5.648438 3.945312 C 6.707031 3.945312 7.769531 3.949219 8.828125 3.949219 C 9.90625 3.953125 10.988281 3.953125 12.070312 3.957031 C 14.191406 3.957031 16.3125 3.960938 18.433594 3.964844 C 18.539062 3.636719 18.539062 3.636719 18.644531 3.300781 C 18.898438 2.570312 19.152344 2.160156 19.660156 1.589844 C 19.789062 1.4375 19.921875 1.285156 20.054688 1.128906 C 21.667969 -0.3125 24.011719 -0.472656 26.027344 0.195312 Z M 21.464844 3.035156 C 20.746094 4.042969 20.667969 4.847656 20.847656 6.039062 C 21.085938 6.8125 21.542969 7.210938 22.167969 7.699219 C 22.980469 8.105469 23.84375 8.066406 24.734375 7.933594 C 25.519531 7.535156 26.011719 6.96875 26.46875 6.210938 C 26.675781 5.25 26.648438 4.410156 26.105469 3.558594 C 25.691406 3.050781 25.324219 2.628906 24.734375 2.332031 C 23.5 2.207031 22.4375 2.175781 21.464844 3.035156 Z M 21.464844 3.035156 "/>
</g>
</svg>
